<svg width="12" height="11" viewBox="0 0 12 11" fill="none" xmlns="http://www.w3.org/2000/svg">
<path d="M4.29105 10.0315C3.93078 10.0315 3.58956 9.89414 3.37091 9.65727L0.411704 6.46215C0.320214 6.36347 0.253421 6.25103 0.215142 6.13125C0.176863 6.01147 0.16785 5.8867 0.188618 5.76407C0.209386 5.64144 0.259527 5.52335 0.336176 5.41657C0.412824 5.30979 0.514477 5.21639 0.635322 5.14173C0.756124 5.06676 0.893844 5.01201 1.04059 4.98061C1.18733 4.94921 1.34022 4.94179 1.49048 4.95876C1.64075 4.97574 1.78543 5.01678 1.91625 5.07953C2.04707 5.14229 2.16144 5.22552 2.25282 5.32447L4.19995 7.42522L9.09552 1.00114C9.25787 0.789033 9.51655 0.638209 9.81481 0.581749C10.1131 0.52529 10.4266 0.567805 10.6865 0.699968C11.2273 0.974745 11.3938 1.55678 11.0559 1.9994L5.27166 9.5862C5.17292 9.7163 5.03682 9.82473 4.87517 9.9021C4.71352 9.97947 4.53121 10.0234 4.34406 10.0302C4.32584 10.0315 4.30927 10.0315 4.29105 10.0315Z" fill="white"/>
</svg>
