<svg width="11" height="11" viewBox="0 0 11 11" fill="none" xmlns="http://www.w3.org/2000/svg">
<path d="M6.9597 5.09413L10.4755 1.57833C10.6424 1.41177 10.7362 1.18574 10.7364 0.949976C10.7366 0.71421 10.6432 0.488017 10.4766 0.321158C10.31 0.154299 10.084 0.0604417 9.84825 0.0602335C9.61248 0.0600253 9.38629 0.153483 9.21943 0.320048L5.70363 3.83585L2.18783 0.320048C2.02097 0.153189 1.79466 0.0594482 1.55869 0.0594482C1.32271 0.0594482 1.0964 0.153189 0.929545 0.320048C0.762686 0.486907 0.668945 0.713217 0.668945 0.949191C0.668945 1.18517 0.762686 1.41148 0.929545 1.57833L4.44535 5.09413L0.929545 8.60994C0.762686 8.77679 0.668945 9.0031 0.668945 9.23908C0.668945 9.47505 0.762686 9.70136 0.929545 9.86822C1.0964 10.0351 1.32271 10.1288 1.55869 10.1288C1.79466 10.1288 2.02097 10.0351 2.18783 9.86822L5.70363 6.35242L9.21943 9.86822C9.38629 10.0351 9.6126 10.1288 9.84858 10.1288C10.0845 10.1288 10.3109 10.0351 10.4777 9.86822C10.6446 9.70136 10.7383 9.47505 10.7383 9.23908C10.7383 9.0031 10.6446 8.77679 10.4777 8.60994L6.9597 5.09413Z" fill="white"/>
</svg>
