<svg width="32" height="36" viewBox="0 0 32 36" fill="none" xmlns="http://www.w3.org/2000/svg">
<path d="M30.8906 27.6875C30.8125 27.6875 30.8125 27.6875 30.7344 27.7656C29.875 27.9219 29.0156 28 28.1562 28C20.7344 28 14.4844 21.9844 14.4844 14.25C14.4844 9.32812 17.1406 4.79688 21.3594 2.375C22.0625 1.98438 21.9062 0.96875 21.125 0.8125C20.2656 0.65625 18.8594 0.5 17.9219 0.5C8.3125 0.5 0.5 8.39062 0.5 18C0.5 27.6875 8.3125 35.5 17.9219 35.5C23.3125 35.5 28.2344 33.0781 31.5156 29.0938C31.9844 28.4688 31.5156 27.6875 30.8906 27.6875ZM17.9219 31.75C10.3438 31.75 4.25 25.6562 4.25 18C4.25 12.0625 8 6.98438 13.3125 5.10938C11.6719 7.84375 10.7344 10.9688 10.7344 14.25C10.7344 22.0625 15.8125 28.625 22.8438 30.8906C21.2812 31.5156 19.6406 31.75 17.9219 31.75Z" fill="white"/>
</svg>
