<svg width="40" height="40" viewBox="0 0 40 40" fill="none" xmlns="http://www.w3.org/2000/svg">
<path d="M20 11.25C15.1562 11.25 11.25 15.2344 11.25 20C11.25 24.8438 15.1562 28.75 20 28.75C24.7656 28.75 28.75 24.8438 28.75 20C28.75 15.2344 24.7656 11.25 20 11.25ZM20 25C17.1875 25 15 22.8125 15 20C15 17.2656 17.1875 15 20 15C22.7344 15 25 17.2656 25 20C25 22.8125 22.7344 25 20 25ZM20 8.75C21.0156 8.75 21.875 7.96875 21.875 6.875V1.875C21.875 0.859375 21.0156 0 20 0C18.9062 0 18.125 0.859375 18.125 1.875V6.875C18.125 7.96875 18.9062 8.75 20 8.75ZM20 31.25C18.9062 31.25 18.125 32.1094 18.125 33.125V38.125C18.125 39.2188 18.9062 40 20 40C21.0156 40 21.875 39.2188 21.875 38.125V33.125C21.875 32.1094 21.0156 31.25 20 31.25ZM38.125 18.125H33.125C32.0312 18.125 31.25 18.9844 31.25 20C31.25 21.0938 32.0312 21.875 33.125 21.875H38.125C39.1406 21.875 40 21.0938 40 20C40 18.9844 39.1406 18.125 38.125 18.125ZM8.75 20C8.75 18.9844 7.89062 18.125 6.875 18.125H1.875C0.78125 18.125 0 18.9844 0 20C0 21.0938 0.78125 21.875 1.875 21.875H6.875C7.89062 21.875 8.75 21.0938 8.75 20ZM30.5469 27.9688C29.8438 27.2656 28.6719 27.2656 27.8906 27.9688C27.1875 28.75 27.1875 29.9219 27.8906 30.625L31.4844 34.2188C31.7969 34.5312 32.2656 34.7656 32.8125 34.7656C33.2812 34.7656 33.75 34.5312 34.1406 34.2188C34.8438 33.4375 34.8438 32.2656 34.1406 31.5625L30.5469 27.9688ZM9.375 12.1094C9.6875 12.4219 10.2344 12.6562 10.7031 12.6562C11.1719 12.6562 11.6406 12.4219 12.0312 12.1094C12.7344 11.3281 12.7344 10.1562 12.0312 9.45312L8.4375 5.85938C7.73438 5.15625 6.5625 5.15625 5.78125 5.85938C5.07812 6.64062 5.07812 7.8125 5.78125 8.51562L9.375 12.1094ZM29.2188 12.6562C29.6875 12.6562 30.2344 12.4219 30.5469 12.1094L34.1406 8.51562C34.8438 7.8125 34.8438 6.64062 34.1406 5.85938C33.3594 5.15625 32.1875 5.15625 31.4844 5.85938L27.8906 9.45312C27.1875 10.1562 27.1875 11.3281 27.8906 12.1094C28.2812 12.4219 28.75 12.6562 29.2188 12.6562ZM9.375 27.9688L5.78125 31.5625C5.07812 32.2656 5.07812 33.4375 5.78125 34.2188C6.17188 34.5312 6.64062 34.7656 7.10938 34.7656C7.65625 34.7656 8.125 34.5312 8.4375 34.2188L12.0312 30.625C12.7344 29.9219 12.7344 28.75 12.0312 27.9688C11.25 27.2656 10.0781 27.2656 9.375 27.9688Z" fill="white"/>
</svg>
